<svg xmlns="http://www.w3.org/2000/svg" viewBox="0 0 572.08 430.72"><defs><style>.cls-1{fill:#fefefe;}.cls-2{fill:#f49025;}.cls-3{fill:#f0f1f1;}.cls-4{fill:#128c88;}</style></defs><g id="Layer_2" data-name="Layer 2"><g id="Layer_1-2" data-name="Layer 1"><path class="cls-1" d="M284.76.18c0,1.55.05,3.1,0,4.65-.4,10.38-.84,20.76-1.25,31.14q-1.15,28.64-2.27,57.26-.54,13.42-1.05,26.84-1,27.19-2.06,54.39a7.23,7.23,0,0,1-.76,3q-17.88,36.94-35.7,73.94a6.82,6.82,0,0,1-2.44,2.53l-69,48.85L98.62,353.39a9.19,9.19,0,0,1-2.12,1.19Q190.79,177.48,284.76.18Z"/><path class="cls-1" d="M290.75,0q9.57,17.84,19.12,35.66,83.92,157.43,166.49,315.55a5,5,0,0,1,.66,2c-.66-.43-1.34-.83-2-1.29L365.52,274.39c-9.45-6.69-18.88-13.4-28.37-20a11.4,11.4,0,0,1-3.84-4.42c-12.12-24.1-23.49-48.56-35.28-72.82a6.78,6.78,0,0,1-.75-2.73c-.42-11.11-.89-22.21-1.33-33.31L293.7,84.28q-.51-12.69-1-25.4-1.06-28.27-2.12-56.55c0-.76-.35-1.59.28-2.29Z"/><path class="cls-2" d="M181,362.31a4.55,4.55,0,0,1,1.73-1.56L284,288.21c.26-.18.51-.38.78-.56,1.81-1.19,1.27-1.5,3.46.06l57.09,40.87q22.31,16,44.62,31.94c.69.5,1.35,1,2.38,1.79Z"/><path class="cls-3" d="M305.38,396.5c0,.59.07,1.14.07,1.69q0,15.1,0,30.21c0,2.15.33,2.18-2,2.14-1.19,0-2.66.49-3.47-.25s-.29-2.26-.29-3.43c0-6.47,0-12.94,0-19.55-1,.15-1.25,1-1.64,1.59q-6.53,9.3-12.95,18.67c-2.09,3.05-2.06,3-5.7,3a2.53,2.53,0,0,1-2.32-1.27c-3.79-5.51-7.63-11-11.46-16.49-1.26-1.81-2.54-3.61-3.85-5.45-.69.58-.41,1.26-.41,1.83,0,6.48,0,12.95,0,19.43,0,1.94.18,2-2,1.91-1.18,0-2.65.49-3.47-.24s-.29-2.26-.3-3.42c0-9.36,0-18.71,0-28.06v-2.39l1.12-.15c3.22-.51,5.29.6,7.17,3.53,4.81,7.5,10.09,14.71,15.19,22,.5.71,1.06,1.38,1.74,2.27,2.17-3.11,4.26-6.08,6.32-9.06,4-5.77,8-11.54,11.91-17.35a2.68,2.68,0,0,1,2.74-1.44C303,396.4,304.16,396.09,305.38,396.5Z"/><path class="cls-3" d="M390.44,430.55H377.27c-2.37,0-2.17.06-2.13-2,.05-3.44-.58-3,3.05-3,8,0,16,0,24,0a15.19,15.19,0,0,0,1.91,0c2.38-.28,3.16-1.17,3.19-3.58,0-1.28,0-2.56,0-3.84-.08-1.89-.84-2.72-2.74-3a15.4,15.4,0,0,0-2.15-.09h-18a15.21,15.21,0,0,1-5.4-.82,6.76,6.76,0,0,1-4.85-6.18,29.12,29.12,0,0,1-.09-4.07,7.43,7.43,0,0,1,6.8-7.41,23.75,23.75,0,0,1,3.58-.23q12.45,0,24.91,0c2.42,0,2.23-.21,2.24,2.14,0,2.86,0,2.86-2.91,2.86H385.19a12.69,12.69,0,0,0-2.14.08c-2,.36-2.7,1.26-2.79,3.26-.21,4.53.52,5.29,5.11,5.29,6.07,0,12.14,0,18.21,0a12.49,12.49,0,0,1,6.22,1.39,6.57,6.57,0,0,1,3.56,5.32,46.81,46.81,0,0,1,.06,6.7c-.17,3.94-2.86,5.87-5.55,6.67a15.36,15.36,0,0,1-4.49.55C399.07,430.53,394.76,430.55,390.44,430.55Z"/><path class="cls-3" d="M208.25,396.5a3.56,3.56,0,0,1,1.9-.21H239.4c.48,0,1,0,1.43,0s.88.29.85.89a1.92,1.92,0,0,0,0,.24c.32,3.85.32,3.85-3.63,3.85H217c-2.6,0-2.6,0-2.6,2.72,0,1.43.07,2.88,0,4.31-.08,1.21.26,1.66,1.57,1.63,4.23-.09,8.47,0,12.7,0,3.36,0,6.71,0,10.07,0,1.27,0,1.64.4,1.6,1.64-.13,4.14.52,3.45-3.36,3.47-6.95,0-13.91,0-20.86,0-1.66,0-1.68,0-1.69,1.69,0,2.32,0,4.64,0,7,0,2.09,0,1.88,2,1.88h22.77l1.68,0c.56,0,.89.27.86.88a3.84,3.84,0,0,0,0,.48c.19,3.63.19,3.63-3.38,3.63q-14.27,0-28.52,0c-1.08,0-1.72-.05-1.71-1.49.07-10.63,0-21.26.05-31.89A2.93,2.93,0,0,1,208.25,396.5Z"/><path class="cls-3" d="M154.4,413.3q0-7.56,0-15.11c0-1.87,0-1.92,1.75-1.89,1.42,0,3.23-.62,4.16.3s.28,2.72.31,4.14c.05,2.32,0,4.63,0,6.95,0,2.48-.29,2.21,2.12,2.22,6.63,0,13.27,0,19.9,0,1.42,0,3.22.59,4.16-.27s.29-2.71.32-4.12q.09-3.83,0-7.67c0-1.07.17-1.68,1.42-1.57,1.5.13,3.37-.58,4.43.27s.38,2.84.39,4.31c.05,9.19,0,18.39,0,27.58,0,2.29.25,2.14-2,2.1-1.34,0-3,.58-3.93-.27s-.3-2.57-.32-3.91c0-3.19,0-6.39,0-9.59,0-1.72,0-1.75-1.64-1.75H162.27c-1.59,0-1.61,0-1.62,1.77,0,3.92,0,7.84,0,11.75,0,2,0,2-1.89,2-1.41,0-3.2.63-4.12-.35s-.22-2.59-.23-3.93C154.39,421.93,154.4,417.62,154.4,413.3Z"/><path class="cls-3" d="M140.08,396.46c.17,1.53.64,3.38-.12,4.44s-2.68.36-4.08.36c-6.95,0-13.9,0-20.85,0a13.65,13.65,0,0,0-1.92,0c-2.14.27-3.1,1.29-3.12,3.48q0,8.64,0,17.26c0,2.12.83,3,2.93,3.37a12.69,12.69,0,0,0,2.14.11h23c2.23,0,2.12-.16,2.13,2,0,3,0,3-3,3H114.4a22.84,22.84,0,0,1-3.1-.2c-4.42-.61-7.41-2.67-7.54-8.19-.12-5.83-.11-11.66,0-17.5s3.84-7.79,7.81-8.2a63.13,63.13,0,0,1,6.45-.16c6.55,0,13.1,0,19.65,0A6.6,6.6,0,0,1,140.08,396.46Z"/><path class="cls-3" d="M0,430.55c2.28-3.66,4.32-7,6.4-10.25Q13.54,409,20.73,397.7a3.92,3.92,0,0,1,6.25,0q10.06,16,20.09,32a.66.66,0,0,1,.11.86c-1.75,0-3.63-.06-5.5,0-1.17.05-1.46-.82-1.9-1.54q-4.23-6.91-8.45-13.87-3.3-5.4-6.59-10.81a2.52,2.52,0,0,0-1-1.13L13,420.65c-1.76,2.85-3.57,5.66-5.28,8.54a2.42,2.42,0,0,1-2.49,1.38C3.63,430.47,2,430.55,0,430.55Z"/><path class="cls-2" d="M553.52,430.57c-2,0-3.94,0-5.84,0-1,0-1.31-.73-1.72-1.41l-9.72-15.92c-2-3.26-4-6.53-6-9.79-1,.25-1.23,1.08-1.63,1.73-4.87,7.86-9.75,15.72-14.55,23.63a3,3,0,0,1-3.24,1.78c-1.42-.14-2.86,0-4.27,0-.26-.87.34-1.28.66-1.79q9.69-15.37,19.42-30.73c.41-.63.58-1.62,1.56-1.65a25.63,25.63,0,0,1,3.82.09c.69.08.82.91,1.15,1.44q8.94,14.16,17.82,28.35A22.23,22.23,0,0,1,553.52,430.57Z"/><path class="cls-3" d="M317.05,396.28c2.73,0,4.86,0,7,0a2.43,2.43,0,0,1,1.84.92q4.28,4.19,8.58,8.33c2.17,2.1,4.37,4.17,6.65,6.34l7.95-7.6c2.43-2.31,4.65-4.82,7.18-7a3.49,3.49,0,0,1,2.56-1c1.88.06,3.77,0,6.15,0-2.15,2.15-3.85,4-5.73,5.71-3.1,2.77-5.91,5.82-8.9,8.69-1.6,1.55-3.2,3.11-4.87,4.59a3.46,3.46,0,0,0-1.19,2.93c.07,3.59,0,7.19.06,10.78,0,1.3-.43,1.67-1.64,1.58a23.41,23.41,0,0,0-3.35,0c-1.1.08-1.32-.4-1.31-1.39.05-3.59,0-7.18.05-10.77a3.84,3.84,0,0,0-1.31-3.14c-5.75-5.52-11.44-11.1-17.16-16.66C318.93,398,318.22,397.34,317.05,396.28Z"/><path class="cls-3" d="M424.52,396.6a4.47,4.47,0,0,1,2.48-.31H462c.48,0,1,0,1.44,0,.73,0,.88.38.95,1,.39,3.94.39,4-3.5,4h-11c-2,0-2-.21-2,1.91q0,12.33,0,24.67c0,.47,0,1,0,1.43.09.91-.26,1.31-1.21,1.27-1.58-.08-3.53.45-4.65-.29s-.36-2.81-.37-4.28c-.05-7.59,0-15.17,0-22.76,0-1.92,0-1.94-1.95-1.94-4.47,0-8.94,0-13.4,0-1.71,0-1.72,0-1.75-1.66C424.5,398.59,424.52,397.56,424.52,396.6Z"/><path class="cls-3" d="M65.22,396.44a7.09,7.09,0,0,1,.16,2.45q0,12.33,0,24.66c0,2,0,2,2,2H89.61c2.21,0,2.15-.2,2.15,2,0,3,0,3-3,3H61.25c-2.35,0-2.11,0-2.11-2q0-15.09,0-30.17c0-2.05,0-2.08,2.07-2.06A17.22,17.22,0,0,1,65.22,396.44Z"/><path class="cls-4" d="M572.07,413.62c0,5,0,10.07,0,15.11,0,1.73,0,1.79-1.7,1.77-1.41,0-3.18.61-4.16-.31s-.35-2.73-.36-4.14q0-13.79,0-27.58c0-2.32,0-2.34,2.39-2.34,4.53,0,3.81-.34,3.84,3.82C572.1,404.51,572.07,409.06,572.07,413.62Z"/><path class="cls-1" d="M290.85,0l0,.07L290.76,0Z"/></g></g></svg>